<?xml version="1.0" encoding="UTF-8" standalone="no"?>
<!-- Created with Inkscape (http://www.inkscape.org/) -->

<svg
   width="167.51787mm"
   height="43.27079mm"
   viewBox="0 0 167.51787 43.27079"
   version="1.1"
   id="svg1"
   xml:space="preserve"
   xmlns="http://www.w3.org/2000/svg"
   xmlns:svg="http://www.w3.org/2000/svg"><defs
     id="defs1" /><g
     id="layer1"
     transform="translate(-18.255119,-116.79661)"><path
       style="fill:#000000;stroke-width:1.1394"
       d="m 82.406475,159.95569 c -0.05521,-0.018 -0.318117,-0.0629 -0.584256,-0.0997 -0.321207,-0.0444 -0.503166,-0.11924 -0.541225,-0.22272 -0.03153,-0.0858 -0.138911,-0.24167 -0.238614,-0.3465 -0.398005,-0.41848 -0.430564,-2.19038 -0.04868,-2.64992 0.114051,-0.13724 0.252238,-0.35335 0.307078,-0.48023 0.08003,-0.18515 0.168641,-0.22968 0.449106,-0.22566 0.192171,0.003 0.38134,-0.0408 0.420373,-0.0969 0.04669,-0.067 0.230056,-0.0773 0.535773,-0.0299 0.532933,0.0825 0.757298,0.0849 1.511298,0.0167 0.35732,-0.0328 0.62318,-0.009 0.779609,0.0708 0.192564,0.0979 0.290203,0.0986 0.517204,0.004 0.153908,-0.0641 0.525157,-0.12597 0.824997,-0.13751 0.299839,-0.0115 0.593266,-0.0638 0.65206,-0.11608 0.14483,-0.12881 0.905385,-0.10979 1.049789,0.0263 0.0886,0.0835 0.209896,0.0852 0.510735,0.007 0.47642,-0.12334 1.194047,-0.12419 1.274349,-10e-4 0.03199,0.0489 0.324973,0.12038 0.651072,0.15889 0.495894,0.0586 0.646213,0.12183 0.918698,0.38668 0.179183,0.17417 0.376408,0.31739 0.438276,0.31828 0.304224,0.004 0.788624,0.97295 0.708454,1.41659 -0.02987,0.1653 -0.0122,0.37662 0.03921,0.46963 0.137167,0.24802 -0.205524,0.7994 -0.763695,1.22876 -0.423242,0.32557 -0.529558,0.36137 -1.196918,0.40297 -0.499387,0.0311 -0.943479,-0.002 -1.395792,-0.10512 -0.364858,-0.0829 -0.800373,-0.12565 -0.967814,-0.0949 -0.167439,0.0307 -1.393485,0.0567 -2.724547,0.0578 -1.331062,0.001 -2.556479,0.0186 -2.723148,0.0388 -0.166673,0.0203 -0.348204,0.022 -0.403408,0.004 z m -50.478886,-2.51727 c -0.03583,-0.0547 -0.152806,-0.1008 -0.259952,-0.10233 -0.107143,-0.002 -0.400745,-0.15114 -0.652445,-0.33245 -0.251698,-0.18131 -0.536987,-0.33078 -0.633971,-0.33217 -0.09699,-0.001 -0.281397,-0.10795 -0.409808,-0.23666 -0.129851,-0.13021 -0.348706,-0.23668 -0.493112,-0.23987 -0.388645,-0.009 -1.045896,-0.32359 -1.528869,-0.73273 -0.465109,-0.394 -1.133945,-0.82985 -1.57944,-1.02928 -0.08266,-0.0369 -0.36943,-0.22966 -0.637265,-0.42815 -0.267834,-0.19849 -0.526615,-0.36144 -0.575067,-0.36214 -0.04846,-6.9e-4 -0.501793,-0.40819 -1.007423,-0.90557 -0.505629,-0.49736 -1.175601,-1.13504 -1.488825,-1.41705 -0.313225,-0.28203 -0.595897,-0.59258 -0.628159,-0.69013 -0.03226,-0.0975 -0.155818,-0.27622 -0.274568,-0.39705 -0.11875,-0.12083 -0.297864,-0.33223 -0.398028,-0.46979 -0.100166,-0.13756 -0.290834,-0.28971 -0.42371,-0.3381 -0.132875,-0.0483 -0.240754,-0.14624 -0.239733,-0.21742 0.001,-0.0712 -0.07017,-0.18578 -0.158208,-0.25467 -0.43938,-0.34388 -1.408934,-1.85462 -1.413988,-2.20327 -0.0037,-0.25512 -0.160616,-0.94766 -0.344104,-1.5187 -0.07596,-0.23637 -0.138201,-0.61112 -0.138329,-0.83278 -1.22e-4,-0.22165 -0.03886,-0.61126 -0.0861,-0.86579 -0.144641,-0.77965 -0.305266,-2.01925 -0.301295,-2.32522 0.0023,-0.18027 0.107573,-0.39975 0.278074,-0.57999 0.232401,-0.24568 0.265378,-0.34579 0.215866,-0.65537 -0.0416,-0.26007 -0.01415,-0.41065 0.0952,-0.52239 0.0845,-0.0863 0.1868,-0.28112 0.227331,-0.43285 0.141249,-0.52879 0.400454,-1.74916 0.400715,-1.88662 7.74e-4,-0.39576 0.371509,-1.18718 0.730258,-1.5588 0.613433,-0.63546 0.642289,-0.66864 0.886891,-1.01999 0.126489,-0.18169 0.293153,-0.35152 0.370361,-0.3774 0.07721,-0.0259 0.172597,-0.17333 0.21197,-0.32766 0.07122,-0.27915 1.096806,-1.27704 1.631462,-1.5874 0.143451,-0.0834 0.261377,-0.19039 0.26206,-0.23803 0.0017,-0.12193 0.879523,-0.91191 1.011157,-0.91003 0.0597,8.6e-4 0.221078,-0.15259 0.358623,-0.34102 0.469362,-0.64297 2.038716,-1.99036 2.657745,-2.28184 0.326247,-0.15362 0.674847,-0.27814 0.774667,-0.27671 0.09982,10e-4 0.211744,-0.0409 0.248718,-0.0939 0.115243,-0.16554 1.135007,-0.53238 1.466724,-0.52763 0.173755,0.002 0.658668,-0.12049 1.077585,-0.2733 0.708226,-0.25833 0.839608,-0.27578 1.872537,-0.24863 0.865285,0.0224 1.237276,-0.009 1.682632,-0.14176 0.314468,-0.0941 1.003435,-0.21275 1.531039,-0.26381 1.132824,-0.10963 1.683333,-0.29018 1.86837,-0.61273 0.231076,-0.40282 0.314317,-1.25731 0.364284,-3.73954 0.04912,-2.43984 0.222899,-3.88207 0.49699,-4.12446 0.08609,-0.0762 0.470692,-0.10646 1.18174,-0.0932 1.242689,0.0228 1.347911,0.0826 1.449251,0.81893 0.03714,0.26984 0.1753,1.21911 0.307024,2.10947 0.131723,0.89038 0.262892,2.34592 0.291485,3.23455 l 0.05198,1.61568 0.400753,0.1809 c 0.66167,0.29869 1.347186,0.45132 2.477372,0.55162 0.615448,0.0546 1.202463,0.15911 1.377981,0.2453 0.220544,0.10826 0.595227,0.15432 1.344151,0.16507 0.571104,0.008 1.393064,0.0823 1.82658,0.16465 0.433514,0.0823 0.934919,0.15185 1.114236,0.15442 0.205537,0.003 0.470934,0.10814 0.718115,0.28466 0.215647,0.15399 0.465908,0.28219 0.556133,0.28491 0.09024,0.002 0.215499,0.0634 0.278387,0.13472 0.06288,0.0714 0.373435,0.16203 0.690107,0.2014 0.791499,0.0984 1.963089,0.35693 2.077731,0.45848 0.05203,0.046 0.217366,0.0855 0.367423,0.0877 0.211371,0.003 0.351773,0.10754 0.623302,0.46394 0.341062,0.44765 0.95004,1.5822 0.947418,1.76507 -0.0015,0.1029 0.541882,1.19101 0.979498,1.96152 0.159895,0.28154 0.338217,0.74103 0.39627,1.0211 0.05805,0.28007 0.150897,0.61372 0.206322,0.74144 0.05542,0.12772 0.112268,0.81925 0.126319,1.53671 0.03715,1.89752 -0.16985,2.22411 -1.438366,2.26918 -0.359604,0.0128 -0.748313,0.0679 -0.863801,0.1224 -0.323623,0.15283 -0.679232,0.11253 -1.065783,-0.12083 -0.460897,-0.2782 -0.610919,-0.72566 -0.737481,-2.19954 -0.05439,-0.63356 -0.139673,-1.22398 -0.189492,-1.31208 -0.04982,-0.0881 -0.08901,-0.26946 -0.08709,-0.40304 0.0043,-0.30084 -0.09255,-0.47427 -0.668821,-1.19747 -0.781671,-0.98096 -1.31788,-1.40798 -2.37984,-1.89521 -0.955796,-0.43854 -1.021013,-0.45436 -2.243539,-0.54455 -0.692521,-0.0511 -1.462679,-0.13788 -1.711461,-0.19285 -1.096207,-0.24226 -1.849406,-0.48211 -1.959398,-0.62394 -0.152772,-0.19697 -1.083957,-0.21826 -1.862845,-0.0425 -0.553643,0.12489 -1.117052,0.54739 -1.121259,0.84082 -9.66e-4,0.0674 -0.09445,0.23406 -0.207728,0.37028 -0.311266,0.3743 -0.508101,2.17707 -0.296937,2.71958 0.149692,0.38458 0.301367,1.48499 0.365844,2.65423 0.01822,0.33027 0.07486,1.05803 0.125885,1.61723 0.05102,0.55921 0.06485,1.28636 0.0307,1.61587 -0.03915,0.3778 -0.0078,0.83861 0.08469,1.2474 0.08072,0.35657 0.160267,1.31312 0.17677,2.12568 0.0165,0.81257 0.05459,1.5816 0.08465,1.70896 0.03006,0.12735 0.06319,0.64707 0.07365,1.15493 0.01045,0.50786 0.06987,1.04873 0.132041,1.20194 0.07491,0.18459 0.0987,0.94772 0.07053,2.2626 -0.04231,1.97488 -0.02802,2.29646 0.133616,3.00201 0.1285,0.56098 0.295106,0.78936 0.703374,0.96412 0.464697,0.19892 1.025342,0.72134 1.19613,1.1146 0.119024,0.27405 0.107746,0.3332 -0.133004,0.69765 -0.248215,0.37576 -0.93082,0.87381 -1.212372,0.88459 -0.142456,0.006 -0.370028,0.12629 -1.299381,0.69002 -0.723455,0.43883 -0.966269,0.47234 -2.271667,0.31353 -0.276816,-0.0338 -0.675063,-0.10558 -0.884988,-0.15983 -0.209925,-0.0542 -0.4709,-0.0741 -0.579946,-0.0441 -0.109048,0.03 -1.139513,0.0567 -2.289929,0.0594 -1.875354,0.004 -3.824857,0.14264 -4.278947,0.30344 -0.09191,0.0326 -0.196428,0.0144 -0.232254,-0.0404 z m 6.344582,-3.51496 c 0.415765,0.006 0.489837,-0.0322 0.97856,-0.49941 l 0.528743,-0.5054 0.03863,-1.26344 c 0.07841,-2.56521 0.09869,-4.61492 0.05633,-5.6941 -0.02393,-0.60959 -0.05985,-1.69013 -0.07982,-2.40122 -0.01997,-0.71107 -0.07442,-1.9165 -0.120986,-2.67873 -0.04658,-0.76223 -0.100423,-1.8638 -0.119674,-2.44795 -0.01926,-0.58412 -0.08199,-1.19966 -0.139423,-1.36783 -0.06203,-0.18166 -0.07302,-0.52784 -0.02709,-0.85283 0.07249,-0.51275 0.01487,-0.95365 -0.241168,-1.84683 -0.14632,-0.51034 -0.228601,-2.03947 -0.133424,-2.47958 0.09586,-0.44329 0.01502,-0.65666 -0.379486,-1.00119 -0.241486,-0.21089 -0.290061,-0.21628 -1.825222,-0.20209 -1.037151,0.01 -1.750424,0.0612 -2.08327,0.15082 -0.278375,0.0749 -0.700411,0.13388 -0.937857,0.13103 -0.237446,-0.003 -0.580302,0.0493 -0.761898,0.11571 -0.181597,0.0665 -0.646014,0.14728 -1.032037,0.17955 -0.407762,0.0341 -0.902811,0.14841 -1.181427,0.27282 -0.263764,0.1178 -0.54122,0.21329 -0.616572,0.21221 -0.07535,-0.001 -0.24504,0.10028 -0.37709,0.22537 -0.132047,0.12503 -0.295238,0.22654 -0.362646,0.22558 -0.06741,-9.7e-4 -0.402562,0.18115 -0.744786,0.40471 -0.342222,0.22356 -0.669407,0.4058 -0.727075,0.40497 -0.05766,-8.3e-4 -0.320969,0.17447 -0.585114,0.38953 -0.264144,0.21507 -0.607204,0.47642 -0.762355,0.58079 -1.214133,0.81673 -2.334919,2.99602 -2.357691,4.58435 -0.0043,0.30334 -0.100496,0.87785 -0.213647,1.27667 -0.284028,1.00108 -0.31553,2.92639 -0.05713,3.49657 0.04631,0.10218 0.101965,0.38509 0.123698,0.62862 0.02173,0.24354 0.106037,0.51475 0.187345,0.60271 0.08131,0.088 0.175737,0.38537 0.209841,0.66094 0.0341,0.27555 0.125426,0.6454 0.202941,0.82189 0.07752,0.17648 0.138151,0.51516 0.134747,0.75261 -0.0034,0.23744 0.03313,0.47176 0.08119,0.52068 0.04805,0.0489 0.138818,0.24345 0.201687,0.43229 0.06287,0.18883 0.354159,0.5842 0.647313,0.87858 0.293153,0.29439 0.611841,0.70125 0.708193,0.90415 0.09635,0.20289 0.356001,0.53329 0.576995,0.73419 0.78894,0.71729 0.948866,0.87598 0.948047,0.94075 -0.002,0.16011 0.870138,0.85637 1.222156,0.97567 0.213726,0.0724 0.502471,0.2162 0.641658,0.31948 0.139189,0.10329 0.418206,0.21729 0.620039,0.25335 0.201834,0.036 0.434822,0.12107 0.517757,0.18896 0.08293,0.0679 0.376358,0.174 0.652057,0.23582 0.275698,0.0619 0.727285,0.17291 1.003526,0.24685 0.683559,0.18299 1.050713,0.24011 2.129816,0.33136 0.507873,0.043 0.96061,0.11463 1.006083,0.15934 0.04547,0.0447 0.514032,0.062 1.041239,0.0385 0.52721,-0.0235 1.16098,-0.0401 1.40838,-0.0368 z m 27.11352,1.87852 c -0.465127,-0.55346 -0.500426,-0.72003 -0.377801,-1.78292 0.139686,-1.21074 0.190382,-4.78707 0.07645,-5.39327 -0.181281,-0.96457 -0.178346,-2.2728 0.0098,-4.38008 0.106404,-1.19158 0.197104,-2.35339 0.201555,-2.5818 0.01309,-0.66906 -0.372015,-4.11817 -0.547061,-4.90029 -0.115726,-0.51706 -0.214741,-1.65949 -0.228301,-2.63411 -0.0192,-1.37965 -0.403278,-6.37128 -0.551077,-7.16197 -0.05233,-0.27999 -0.127855,-1.07032 -0.167817,-1.75631 -0.167608,-2.87711 -0.275296,-3.98948 -0.492705,-5.08942 -0.251662,-1.27322 -0.279519,-2.0481 -0.09315,-2.59107 0.223753,-0.65191 1.099906,-0.86652 1.911171,-0.46813 0.635146,0.31189 0.686165,0.60418 0.734659,4.20882 0.02262,1.68165 0.104841,3.24871 0.227802,4.34185 0.10582,0.94078 0.191167,2.00126 0.189659,2.35663 -0.0015,0.35539 0.06006,0.95859 0.13682,1.34047 0.07676,0.38188 0.150525,0.94373 0.163925,1.24854 0.0134,0.30482 0.06726,1.30254 0.119701,2.21717 0.05244,0.91462 0.108141,2.05777 0.123785,2.5403 0.05044,1.55575 0.257273,3.55093 0.527103,5.08464 0.181335,1.03069 0.169301,1.95572 -0.03624,2.78583 -0.09164,0.37009 -0.188226,1.12952 -0.214641,1.68762 -0.02641,0.55809 -0.0864,1.45033 -0.133317,1.98276 -0.05231,0.59358 -0.04688,1.11142 0.01402,1.3387 0.78467,2.9285 0.764793,2.83114 0.814867,3.99149 0.02387,0.55308 0.113979,1.30487 0.20025,1.6707 0.148814,0.63102 0.147166,0.6841 -0.03212,1.03528 -0.103938,0.20362 -0.262923,0.42679 -0.353289,0.49597 -0.29539,0.22615 -1.523835,0.7786 -1.724912,0.77571 -0.108,-0.002 -0.33262,-0.16495 -0.499158,-0.36311 z m 116.530289,0.0224 c -0.2899,-0.30346 -0.21987,-1.50125 0.12826,-2.19395 l 0.27637,-0.54991 0.0784,-3.78359 c 0.043,-2.08098 0.10732,-4.09474 0.14267,-4.47501 0.0354,-0.38027 0.0444,-2.14557 0.0199,-3.92291 -0.0361,-2.62567 -0.075,-3.31846 -0.20776,-3.69538 -0.14296,-0.40599 -0.15766,-0.99975 -0.11767,-4.75568 0.0349,-3.27158 0.0161,-4.34202 -0.0791,-4.50317 -0.0687,-0.11626 -0.0972,-0.25109 -0.0635,-0.29959 0.17352,-0.24922 0.2709,-1.35463 0.2802,-3.18011 0.005,-1.11689 0.0128,-2.42915 0.0157,-2.91617 l 0.006,-0.88549 0.38878,-0.42185 c 0.28287,-0.30696 0.50432,-0.44859 0.8131,-0.52002 0.61677,-0.14269 1.28413,-0.0418 1.50299,0.22717 0.0982,0.12068 0.30567,0.36736 0.46111,0.54818 0.23624,0.27481 0.25982,0.34772 0.14369,0.44418 -0.0764,0.0634 -0.14127,0.27744 -0.14411,0.47549 -0.003,0.19804 -0.0448,0.38177 -0.0933,0.40829 -0.0754,0.0412 -0.40116,0.87716 -0.57538,1.47628 -0.0294,0.10109 -0.12064,0.34905 -0.20289,0.55096 -0.12498,0.30707 -0.15814,1.33303 -0.20273,6.27419 -0.0324,3.59996 -0.0148,6.12398 0.0452,6.46238 0.0542,0.3054 0.13651,1.07507 0.18293,1.71036 0.0464,0.63531 0.12282,1.471 0.16981,1.85712 0.047,0.38611 0.06,2.65493 0.0287,5.04183 -0.0462,3.57023 -0.0312,4.42016 0.087,4.79292 0.13565,0.42765 0.17623,2.21087 0.10223,4.49323 -0.0243,0.74968 -0.19351,1.1884 -0.51732,1.34133 -0.0985,0.0465 -0.70006,0.1062 -1.33695,0.13271 -1.06953,0.0446 -1.17126,0.0343 -1.33183,-0.13378 z m -99.275468,-1.64251 c -0.249072,-0.0348 -0.590551,-0.13268 -0.75884,-0.21765 -0.168288,-0.0849 -0.60315,-0.19737 -0.966361,-0.24976 -0.839938,-0.12116 -1.988012,-0.64817 -2.679653,-1.23006 -1.01292,-0.85218 -2.12023,-1.94454 -2.251179,-2.2208 -0.07269,-0.15335 -0.469613,-0.61342 -0.882046,-1.02238 -0.412432,-0.40894 -0.750663,-0.78765 -0.751624,-0.84157 -0.0024,-0.13424 -0.271645,-0.63059 -1.513464,-2.79003 -1.142238,-1.98629 -1.060876,-1.75962 -1.509583,-4.20575 -0.163149,-0.88941 0.02098,-2.19465 0.503449,-3.5694 0.363815,-1.03661 0.530091,-1.67538 0.646353,-2.48311 0.03733,-0.25931 0.263592,-0.82275 0.517731,-1.28922 0.38951,-0.71495 0.603165,-0.96589 1.557514,-1.82933 0.608342,-0.55041 1.345573,-1.15354 1.638287,-1.34029 0.292716,-0.18676 0.779083,-0.58223 1.080814,-0.87883 0.316079,-0.31071 0.694817,-0.58262 0.89357,-0.64153 0.189734,-0.0563 0.536303,-0.21752 0.770157,-0.35842 0.233854,-0.14091 0.51215,-0.25496 0.618435,-0.25343 0.106286,0.002 0.29349,-0.0745 0.41601,-0.16895 0.197549,-0.15228 0.390734,-0.1688 1.706539,-0.14603 0.900568,0.0149 1.595926,-0.0145 1.769106,-0.0767 0.33756,-0.12108 2.659068,-0.0923 3.547303,0.0439 0.332033,0.0509 0.920734,0.13411 1.308229,0.18482 0.387496,0.0507 0.831584,0.14042 0.986866,0.19933 0.175409,0.0665 1.062023,0.11826 2.34115,0.13659 l 2.05882,0.0295 0.400517,-0.24811 c 0.220284,-0.13646 0.450731,-0.3428 0.512104,-0.45856 0.140839,-0.26559 0.150883,-1.16263 0.02242,-2.00307 -0.173578,-1.13567 -0.375961,-3.55583 -0.459853,-5.49907 -0.01864,-0.43182 -0.05827,-1.10106 -0.08807,-1.48719 -0.04884,-0.63307 -0.0277,-0.75157 0.215261,-1.20562 0.390002,-0.72888 0.642382,-0.89248 1.555347,-1.00827 0.292597,-0.0371 0.463067,-0.015 0.555646,0.0723 0.07342,0.0692 0.237017,0.17837 0.36345,0.24258 0.126442,0.0642 0.360202,0.31073 0.51947,0.54781 0.362657,0.53988 0.368648,1.00512 0.02144,1.66436 -0.376958,0.71564 -0.720018,3.07715 -0.611673,4.21042 0.09973,1.04316 0.243054,1.95175 0.364858,2.31297 0.05161,0.15306 0.08264,0.91138 0.06905,1.68517 -0.01309,0.7738 0.0083,1.45731 0.04863,1.51891 0.04032,0.0616 0.05446,1.81709 0.03138,3.90106 -0.05118,4.6232 0.0099,7.99555 0.184002,10.16168 0.04082,0.5083 0.04051,1.33909 -7.67e-4,1.84619 -0.04138,0.50712 -0.0376,1.21335 0.0081,1.56941 0.0457,0.35604 0.04799,1.20763 0.0048,1.89242 -0.06049,0.96165 -0.04507,1.37163 0.06819,1.80102 0.342075,1.29816 0.423758,1.84747 0.315516,2.12169 -0.168984,0.42806 -0.403196,0.60022 -0.808654,0.5944 -0.327787,-0.005 -0.624548,0.093 -1.272157,0.41892 -0.736102,0.37041 -1.1603,0.49016 -1.483401,0.41875 -0.185131,-0.041 -0.631493,-0.0784 -0.991914,-0.0832 -1.273878,-0.0173 -5.000795,0.13319 -5.549232,0.22382 -0.615199,0.10164 -4.328385,0.10764 -5.041957,0.008 z m 4.201374,-2.06253 c 0.950524,-0.0413 1.887618,-0.11516 2.082429,-0.16399 0.310368,-0.0778 0.968125,-0.13899 2.738039,-0.25477 0.256297,-0.0167 0.75741,-0.15421 1.113583,-0.30544 0.862319,-0.36613 1.14126,-0.75449 1.617673,-2.25226 0.156106,-0.49076 0.181334,-1.16993 0.229613,-6.1815 0.02984,-3.09658 0.06829,-6.61984 0.08546,-7.82946 0.03321,-2.33897 -0.0088,-2.59549 -0.46919,-2.862 -0.111397,-0.0645 -0.29247,-0.25355 -0.402375,-0.42012 -0.1769,-0.26813 -0.251348,-0.30363 -0.648825,-0.30933 -0.246948,-0.004 -0.554037,-0.0714 -0.682418,-0.15104 -0.128384,-0.0794 -0.615367,-0.18987 -1.082186,-0.2452 -0.466821,-0.0553 -1.072319,-0.16785 -1.345552,-0.25003 -0.441627,-0.13283 -2.719574,-0.38369 -3.518478,-0.38747 -0.166361,-0.001 -0.530721,-0.0629 -0.809669,-0.138 -0.436076,-0.11744 -0.676352,-0.12044 -1.713915,-0.0216 -1.501609,0.14321 -2.273689,0.27324 -2.471516,0.4162 -0.15857,0.11459 -1.115377,0.4022 -1.949273,0.58593 -0.363133,0.0801 -0.610336,0.22485 -1.013621,0.59393 -0.29335,0.26847 -0.591541,0.48729 -0.662646,0.48627 -0.0711,-0.001 -0.129973,0.0463 -0.130815,0.10509 -8.45e-4,0.0589 -0.288802,0.36252 -0.639907,0.67488 -1.281663,1.14025 -1.392416,1.32624 -1.680883,2.82287 -0.09846,0.51083 -0.314713,1.24434 -0.480557,1.63001 -0.304505,0.70814 -0.493275,1.82663 -0.596129,3.53219 -0.04545,0.7536 0.147566,1.78815 0.428337,2.29588 0.07499,0.13562 0.435915,0.79597 0.80205,1.46746 0.366133,0.67149 0.772457,1.35328 0.902939,1.51508 0.130484,0.1618 0.394393,0.58773 0.586464,0.9465 0.192072,0.35878 0.562719,0.87099 0.823661,1.13824 0.260943,0.26725 0.608063,0.6608 0.771379,0.87454 0.727699,0.95242 2.059129,1.83729 3.19632,2.12427 0.276302,0.0697 0.909175,0.23697 1.406386,0.37164 1.04567,0.28321 1.201747,0.2917 3.513623,0.19111 z m 45.809034,2.38646 c -0.19321,-0.0636 -0.50874,-0.21129 -0.70116,-0.32824 -0.19243,-0.11695 -0.463,-0.23482 -0.60127,-0.26195 -0.13826,-0.0272 -0.44426,-0.093 -0.67999,-0.1463 -0.83767,-0.18954 -2.2887,-0.12652 -6.68315,0.29014 -0.51472,0.0488 -1.66506,0.0441 -2.87369,-0.0115 -1.10847,-0.0511 -2.6277,-0.11288 -3.37606,-0.13751 -1.43593,-0.0471 -2.27612,-0.21238 -2.63503,-0.51854 -0.15528,-0.13247 -0.37625,-0.1745 -0.99437,-0.18916 -0.64787,-0.0163 -0.89207,-0.0653 -1.32164,-0.27049 -0.28981,-0.1384 -0.86651,-0.3032 -1.28156,-0.36621 -0.90963,-0.13812 -2.16411,-0.66456 -2.79006,-1.17084 -0.24436,-0.19764 -0.69196,-0.49184 -0.99465,-0.65375 -0.5506,-0.29456 -0.90605,-0.67937 -1.429,-1.5471 -0.63662,-1.05632 -0.86003,-1.62688 -1.1709,-2.99014 -0.0522,-0.22921 -0.16828,-0.49513 -0.25778,-0.59092 -0.12652,-0.1354 -0.15141,-0.31043 -0.11184,-0.78624 0.0541,-0.6509 0.0618,-1.02972 0.0591,-2.89795 -10e-4,-0.8117 0.0471,-1.32796 0.15525,-1.65936 0.0863,-0.2646 0.23831,-0.77069 0.33769,-1.12466 0.0994,-0.35397 0.22374,-0.69255 0.27635,-0.7524 0.0527,-0.0599 0.15612,-0.30759 0.22999,-0.55056 0.12698,-0.41765 0.70006,-1.27428 1.39506,-2.08526 0.17192,-0.20063 0.39346,-0.47757 0.4923,-0.61545 0.0988,-0.1379 0.20242,-0.25174 0.23018,-0.25301 0.0277,-0.002 0.62265,-0.49149 1.32203,-1.08935 0.69938,-0.59787 1.32682,-1.08625 1.39432,-1.08529 0.0675,9.7e-4 0.25795,-0.0993 0.42318,-0.22287 0.16525,-0.12356 0.50368,-0.30105 0.75211,-0.39443 0.24841,-0.0933 0.70456,-0.35281 1.01365,-0.57646 0.3091,-0.22365 0.65623,-0.43256 0.77141,-0.46424 0.11515,-0.0318 0.26528,-0.1175 0.33359,-0.19071 0.0684,-0.0731 0.24903,-0.13132 0.40163,-0.12913 0.33643,0.005 1.0944,-0.21924 1.31175,-0.38777 0.087,-0.0675 0.29445,-0.14348 0.46119,-0.16908 0.67604,-0.10377 1.55514,-0.31459 2.21563,-0.53131 0.38431,-0.12612 0.83561,-0.22733 1.00292,-0.22493 0.16729,0.002 0.47389,-0.0613 0.68133,-0.14171 0.33531,-0.12987 0.3847,-0.19203 0.44527,-0.56036 0.14599,-0.88794 0.0936,-1.35496 -0.22127,-1.97206 -0.16677,-0.32685 -0.38182,-0.76155 -0.47788,-0.966 -0.60067,-1.27834 -0.94658,-1.88195 -1.24358,-2.17006 -0.18549,-0.17993 -0.33643,-0.38473 -0.33542,-0.45509 0.004,-0.3107 -1.45079,-1.34149 -1.90303,-1.34797 -0.2148,-0.003 -0.32759,0.48685 -0.42755,1.8572 -0.0895,1.22712 -0.14277,1.52607 -0.31893,1.79097 -0.11624,0.17491 -0.21257,0.3955 -0.21393,0.49023 -10e-4,0.0947 -0.10966,0.2881 -0.24068,0.42975 -0.13099,0.14164 -0.39185,0.463 -0.57967,0.71417 -0.68962,0.92218 -1.09734,1.19853 -1.85236,1.25546 -0.24073,0.0181 -0.60727,0.0597 -0.81456,0.0922 -0.30548,0.048 -0.46165,0.0123 -0.82453,-0.18925 -0.66585,-0.36961 -0.75531,-0.53991 -0.74277,-1.4142 l 0.0108,-0.75381 0.53899,-0.66897 c 0.29645,-0.36794 0.64935,-0.71742 0.78424,-0.77666 0.32696,-0.14354 0.63153,-0.97865 0.53759,-1.47395 -0.10442,-0.55028 -0.69795,-1.30343 -1.53073,-1.94226 -0.26978,-0.20696 -0.65657,-0.57392 -0.85952,-0.81546 l -0.36899,-0.43918 0.0349,-0.95027 c 0.0194,-0.52264 0.0885,-1.03822 0.15396,-1.14572 0.18338,-0.30131 0.92818,-0.66895 1.88841,-0.93213 0.16099,-0.0441 0.87426,-0.1 1.58504,-0.12412 1.07136,-0.0364 1.3322,-0.0192 1.5253,0.10038 0.12812,0.0794 0.50262,0.2242 0.8322,0.32184 0.5947,0.17619 0.88366,0.32565 1.74847,0.90438 0.49051,0.32824 0.64814,0.41503 1.87364,1.03158 0.72871,0.36661 0.87026,0.48234 1.22736,1.00353 0.2644,0.3859 0.4703,0.59007 0.59687,0.59189 0.12782,0.002 0.21397,0.089 0.25454,0.25751 0.0337,0.1401 0.20395,0.40216 0.37825,0.58235 0.1743,0.18021 0.48831,0.57933 0.69781,0.88696 0.20949,0.30763 0.46224,0.67304 0.56165,0.81202 0.0993,0.139 0.18018,0.29033 0.17952,0.3363 -6.6e-4,0.046 0.0829,0.18429 0.18557,0.30735 0.2202,0.26381 0.44379,0.99326 0.68236,2.22607 0.0949,0.49052 0.23022,0.99093 0.30064,1.11203 0.0855,0.14711 0.13458,0.74123 0.14773,1.78976 0.02,1.60074 -0.11759,2.85141 -0.38039,3.45619 -0.0767,0.17659 -0.19313,0.49444 -0.25863,0.7063 -0.25079,0.81112 -1.86817,1.65874 -3.13653,1.64375 -0.4986,-0.006 -0.55891,-0.0322 -0.92569,-0.40425 -0.21578,-0.21887 -0.3925,-0.42587 -0.3927,-0.46003 6e-5,-0.0738 -0.505,-0.2299 -1.02797,-0.31791 -0.2062,-0.0347 -0.57244,-0.20536 -0.81384,-0.37924 -0.75935,-0.547 -0.80724,-0.55969 -1.66238,-0.44081 -0.51381,0.0714 -1.0583,0.23512 -1.64576,0.49479 -0.48286,0.21343 -0.94371,0.38711 -1.02409,0.38596 -0.0804,-0.001 -0.35419,0.19224 -0.60843,0.42975 -0.25422,0.23752 -0.74262,0.63552 -1.08528,0.88447 -0.34268,0.24893 -0.6471,0.51458 -0.67649,0.59031 -0.0295,0.0758 -0.2166,0.23598 -0.41604,0.35611 -0.19945,0.12014 -0.42598,0.32458 -0.50342,0.45433 -0.0775,0.12977 -0.32702,0.42019 -0.5546,0.6454 -0.22758,0.2252 -0.41572,0.45492 -0.4181,0.51048 -0.002,0.0556 -0.18035,0.34378 -0.3955,0.64049 -0.21516,0.29672 -0.47382,0.72255 -0.57482,0.94626 -0.27813,0.61612 -0.41194,1.78839 -0.27967,2.45018 0.0607,0.30442 0.099,0.80256 0.0849,1.10697 -0.0335,0.71942 0.19759,2.40994 0.38898,2.84573 0.0823,0.18742 0.1486,0.41604 0.14728,0.50802 -10e-4,0.092 0.15113,0.30368 0.33875,0.47045 0.18763,0.16677 0.3908,0.45922 0.45148,0.64988 0.12186,0.38294 0.23869,0.66384 0.4586,1.10259 0.15619,0.31163 0.82877,0.78407 1.12222,0.78828 0.0978,0.001 0.33036,0.10786 0.51694,0.2367 0.74906,0.51696 0.95383,0.6145 1.30129,0.61982 0.23403,0.004 0.42613,0.0718 0.54225,0.19273 0.0989,0.10293 0.25219,0.18877 0.34061,0.1907 0.0885,0.002 0.45445,0.0927 0.81339,0.20198 0.35892,0.10916 1.00264,0.24054 1.43049,0.29197 0.48694,0.0586 0.8815,0.1622 1.05482,0.27717 0.32352,0.21459 1.10155,0.35162 1.27409,0.22441 0.0774,-0.0571 0.27716,-0.0529 0.56838,0.0111 0.24694,0.055 0.67612,0.0819 0.95375,0.0597 0.27761,-0.022 1.11373,-0.0491 1.85803,-0.0601 1.04237,-0.0152 1.37882,-0.051 1.46451,-0.15511 0.0852,-0.10366 0.44076,-0.14255 1.52324,-0.16661 1.00862,-0.0224 1.58559,-0.081 2.01954,-0.20481 0.89812,-0.25638 1.51744,-0.29553 2.10992,-0.13338 1.02979,0.28182 1.53601,0.36717 2.43744,0.41093 0.88841,0.0431 0.92953,0.0362 1.17597,-0.19846 0.14045,-0.13374 0.29415,-0.388 0.34156,-0.56501 0.11527,-0.4306 0.1367,-6.18598 0.0237,-6.38575 -0.0489,-0.0864 -0.0847,-0.62708 -0.0798,-1.20152 0.004,-0.57444 -0.0317,-1.25271 -0.0813,-1.50727 -0.0497,-0.25457 -0.1254,-0.9203 -0.16833,-1.47938 -0.13203,-1.71928 -0.26927,-2.84204 -0.41424,-3.3886 -0.0763,-0.28765 -0.13313,-0.91441 -0.12627,-1.39279 0.013,-0.90629 -0.15078,-1.65187 -0.4737,-2.15643 -0.2605,-0.40702 -0.38067,-1.70803 -0.3606,-3.90369 0.009,-1.05424 -0.0225,-2.14583 -0.0716,-2.42577 -0.049,-0.27995 -0.11995,-0.80131 -0.15764,-1.1586 -0.0377,-0.35729 -0.11961,-0.73998 -0.18206,-0.85042 -0.0625,-0.11043 -0.11121,-0.3682 -0.10827,-0.5728 0.003,-0.20461 -0.0547,-0.55086 -0.12822,-0.76947 -0.27397,-0.81533 -0.34999,-1.93565 -0.20818,-3.06765 0.12603,-1.00621 0.15275,-1.08566 0.4782,-1.42387 0.47099,-0.48946 1.20955,-0.71045 1.77442,-0.53091 0.46958,0.14925 1.13841,0.7671 1.28213,1.1844 0.0573,0.16626 0.10213,1.32761 0.10172,2.63303 -6.5e-4,2.3126 0.0821,3.80697 0.27538,4.97037 0.0716,0.43079 0.0668,0.74826 -0.0169,1.11882 -0.0642,0.28456 -0.0951,0.72028 -0.0686,0.96828 0.10983,1.02558 0.2971,2.21536 0.36465,2.31668 0.0397,0.0597 0.0812,0.64491 0.0921,1.30065 0.0114,0.68355 0.0701,1.28123 0.13778,1.40081 0.0649,0.11469 0.15407,0.40362 0.19822,0.64203 0.0441,0.23842 0.12543,0.60029 0.1806,0.80417 0.0552,0.20387 0.097,0.67577 0.093,1.04867 -0.006,0.46097 0.0447,0.76124 0.15531,0.9381 0.10502,0.16802 0.13289,0.32058 0.0786,0.43078 -0.0463,0.0939 -0.0717,0.21234 -0.0566,0.26333 0.0151,0.051 0.0385,0.35203 0.0519,0.66899 0.0134,0.31695 0.0694,0.73316 0.12463,0.92489 0.0551,0.19173 0.0984,0.63936 0.096,0.99471 -0.003,0.35535 0.0391,0.83367 0.0918,1.06289 0.0529,0.22923 0.13073,0.93352 0.17293,1.56508 0.0421,0.63158 0.12001,1.27655 0.17287,1.43328 0.0529,0.15675 0.10634,0.99605 0.11884,1.86512 0.0126,0.86908 0.0648,1.74216 0.11623,1.94018 0.0515,0.19804 0.11846,0.68953 0.14896,1.09223 0.0305,0.40269 0.10125,0.81302 0.15707,0.91184 0.12154,0.21492 0.27508,1.12061 0.30936,1.82512 0.0332,0.68262 -0.29293,1.50098 -0.70093,1.75869 -0.20626,0.13028 -0.54561,0.20943 -1.07434,0.25062 -0.42506,0.0331 -0.93193,0.0794 -1.12638,0.10301 -0.19445,0.0235 -0.51161,-0.009 -0.70481,-0.0728 z m 10.8446,-1.38224 c -0.23278,-0.0888 -0.28906,-0.29784 -0.42122,-1.56436 -0.0404,-0.3872 -0.12244,-1.09934 -0.18231,-1.58251 -0.0599,-0.48317 -0.10456,-1.9377 -0.0993,-3.23228 0.0215,-5.30329 -0.0644,-7.97564 -0.27143,-8.44696 -0.16065,-0.36577 -0.11435,-1.75199 0.10458,-3.12978 0.0996,-0.6273 0.10537,-1.03664 0.0243,-1.75354 -0.0581,-0.51438 -0.0998,-1.49594 -0.0925,-2.18123 0.008,-0.6853 -0.004,-1.55781 -0.0254,-1.93889 -0.0715,-1.27942 -0.11521,-2.53021 -0.14039,-4.01751 -0.0138,-0.81253 -0.0405,-2.29549 -0.0592,-3.29545 l -0.0341,-1.81813 0.27449,-0.24415 c 0.25443,-0.22629 0.31621,-0.23906 0.84499,-0.17452 0.31377,0.0383 0.72826,0.14301 0.92108,0.23272 0.34667,0.16126 0.35029,0.1693 0.32342,0.71656 -0.0151,0.3044 -0.0964,1.06691 -0.18112,1.69441 -0.17357,1.28627 -0.186,7.10716 -0.0216,10.11842 0.0499,0.91458 0.0948,2.57681 0.0996,3.69383 0.005,1.11703 0.0408,3.08496 0.0798,4.37319 0.0636,2.09539 0.12729,2.71284 0.45459,4.40397 0.0493,0.25455 0.10655,1.19002 0.1273,2.0788 0.0235,1.00504 0.10681,1.96131 0.22047,2.52939 0.10058,0.50238 0.20184,1.40244 0.22515,2.00013 0.0519,1.33108 -0.008,1.42117 -1.00969,1.50511 -0.35322,0.0296 -0.71047,0.0676 -0.79391,0.0844 -0.0834,0.0168 -0.24873,-0.007 -0.36735,-0.0517 z m 14.12296,0.20349 c -0.38933,-0.0797 -1.8793,-0.68132 -3.04235,-1.22836 -0.70718,-0.33261 -1.32687,-0.92133 -2.06705,-1.96369 -0.62185,-0.87573 -0.76007,-1.24259 -0.89953,-2.38758 -0.0434,-0.35602 -0.17602,-0.89793 -0.29481,-1.20426 -0.18698,-0.48218 -0.21915,-0.79605 -0.2396,-2.33778 -0.0246,-1.85158 0.0389,-2.2933 0.42884,-2.96735 0.39271,-0.67953 0.63371,-1.28195 0.9363,-2.34049 0.0722,-0.25282 0.18733,-0.54195 0.25571,-0.64251 0.0684,-0.10053 0.15877,-0.30379 0.20085,-0.45164 0.0925,-0.32442 0.57178,-0.95736 1.14652,-1.51372 0.23258,-0.22512 0.5306,-0.56956 0.66228,-0.76541 0.39717,-0.59071 1.19959,-1.24052 2.14429,-1.73649 0.0978,-0.0514 0.24067,-0.13969 0.31746,-0.19631 0.0768,-0.0567 0.36658,-0.15076 0.64399,-0.20921 0.27739,-0.0583 0.59466,-0.1608 0.705,-0.22749 0.11041,-0.0666 0.33799,-0.11943 0.50586,-0.11721 0.16787,0.002 0.46529,-0.0826 0.66091,-0.18843 0.50348,-0.2724 1.95578,-0.66533 3.00401,-0.81274 0.49042,-0.069 1.2102,-0.18844 1.59953,-0.26548 0.95888,-0.18975 1.22538,-0.18112 1.48748,0.0481 0.19834,0.1735 0.39195,0.20394 1.73469,0.27281 1.91372,0.0982 2.75904,0.10387 3.54012,0.0239 0.13043,-0.0134 0.273,-0.70311 0.33559,-1.62372 0.1526,-2.24438 0.21435,-5.44107 0.12041,-6.22922 -0.0576,-0.48315 -0.14123,-1.19052 -0.1858,-1.57194 -0.0445,-0.38142 -0.10716,-0.90907 -0.13913,-1.17254 -0.0571,-0.47083 -0.0503,-0.48638 0.3947,-0.90538 0.38355,-0.3611 0.53329,-0.43679 0.97885,-0.49475 0.51873,-0.0675 1.12614,0.0451 1.1238,0.20836 -6.1e-4,0.0419 0.12171,0.21379 0.27182,0.38197 l 0.27291,0.30578 -0.0652,5.0352 c -0.0357,2.76936 -0.0356,5.12058 0.001,5.22493 0.0366,0.10432 0.079,0.82095 0.0941,1.59242 0.019,0.9666 0.0861,1.62636 0.2161,2.12208 0.17918,0.68376 0.37839,2.38343 0.42008,3.58433 0.0106,0.30477 0.0583,0.90408 0.10622,1.33178 0.0478,0.42769 0.0645,0.8292 0.037,0.89221 -0.0275,0.063 0.0195,0.24187 0.10446,0.39742 0.10584,0.19389 0.15484,0.5673 0.15569,1.18751 8.7e-4,0.4976 0.035,1.07135 0.076,1.27503 0.0412,0.20367 0.16394,1.07777 0.27287,1.94243 0.23171,1.839 0.17811,3.78819 -0.12811,4.65984 -0.1296,0.36888 -0.1651,0.68904 -0.13159,1.18678 0.041,0.60767 0.0195,0.71877 -0.19764,1.02415 -0.44805,0.63021 -0.65812,0.72584 -2.24483,1.02192 -1.00075,0.18673 -1.23042,0.0974 -1.6285,-0.63353 -0.46473,-0.85328 -0.36284,-1.92019 0.20918,-2.19034 0.31403,-0.14831 0.48898,-0.51641 0.73271,-1.54174 0.24962,-1.05012 0.32569,-3.44191 0.17826,-5.60395 -0.045,-0.66066 -0.0985,-1.90761 -0.11875,-2.77101 -0.0202,-0.86408 -0.0857,-1.6535 -0.14567,-1.75598 -0.0598,-0.10237 -0.13667,-0.47737 -0.17068,-0.83324 -0.1135,-1.18764 -0.33697,-2.12054 -0.63239,-2.63992 l -0.29117,-0.51187 -0.69245,-0.0149 c -0.38086,-0.008 -0.98667,-0.0665 -1.34629,-0.12864 -1.91402,-0.33088 -3.54706,-0.42274 -4.98739,-0.28055 -2.28891,0.22599 -2.77454,0.31626 -3.61265,0.67155 -0.46139,0.19559 -1.12143,0.46588 -1.46676,0.60065 -0.84972,0.33161 -2.22494,1.52021 -2.46867,2.13365 -0.0655,0.16481 -0.22757,0.42641 -0.36022,0.58134 -0.54017,0.63093 -0.88427,1.42657 -1.11449,2.57693 -0.16336,0.81628 -0.28607,1.28237 -0.40709,1.54637 -0.14829,0.3235 -0.15994,0.84715 -0.0236,1.08719 0.0569,0.10062 0.10633,0.77357 0.10999,1.49555 0.007,1.37205 0.10329,1.79797 0.50234,2.21912 0.11016,0.11621 0.40572,0.54804 0.65693,0.95963 0.29681,0.48635 0.60633,0.8534 0.88405,1.04833 0.23502,0.16499 0.53953,0.38509 0.67669,0.48912 0.22273,0.16893 0.42567,0.19482 1.8985,0.2423 l 1.64911,0.0531 0.29282,0.32276 c 0.47399,0.52244 0.57398,0.82137 0.47599,1.42287 -0.1225,0.75202 -0.37248,0.94573 -1.5016,1.16375 -1.0313,0.19912 -2.0283,0.24748 -2.61693,0.12693 z"
       id="path1" /></g></svg>
